<svg xmlns="http://www.w3.org/2000/svg" viewBox="0 0 2092.65 365.43"><g data-name="Слой 2"><path d="M536.84 363.05H515v-69.16h-.42l-37.52 69.16h-24.64v-99.68h21.84v69h.42l37.52-69h24.64zm124.74 0h-21.84v-43H599v43h-21.84v-99.68H599v37.52h40.74v-37.52h21.84zm87.36-99.68c17.5 0 31.78 7.42 31.78 25.06 0 9.66-5.46 16.94-13.58 20.58 10.36 2.94 18.2 10.5 18.2 24.36 0 19.46-15 29.68-33.74 29.68h-49.84v-99.68zM723 303.69h19.88c8 0 16.52-1.54 16.52-11.62s-8.12-11.76-16.52-11.76H723zm0 42h22c9.38 0 18.48-1.82 18.48-13.58 0-12-9.8-13.58-19.6-13.58H723zm173.22-64.4h-53.06V303h48.72v17.22h-48.72v24.5h54v18.34h-75.7v-99.69h74.76zm81.34 84.14c-29 0-48.16-20.86-48.16-52.36 0-29 18.48-52.08 49-52.08 23.94 0 41.44 15.12 43.12 35.7h-21.42c-2.24-10.92-10.36-17.36-22.12-17.36-19.18 0-26.6 17.22-26.6 33.88 0 20.58 10.22 33.74 26.32 33.74 13.16 0 21-7.84 22.82-22.4h21.7c-2.22 24.36-17.36 40.88-44.66 40.88zm151.9-83.43h-30v81.06h-22V282h-30v-18.63h81.9zm116.9 81.05h-21.84v-69.16h-.42l-37.52 69.16h-24.64v-99.68h21.84v69h.42l37.52-69h24.64zm83.44-99.68c21.56 0 36.54 10.08 36.54 32.06 0 21.7-15.4 31.78-35.42 31.78h-22.4v35.84h-21.7v-99.68zM1308.52 310H1328c9.8 0 17.08-3.22 17.08-14.28 0-10.64-7.28-14.42-16.94-14.42h-19.6zm186.48 3.35c0 31.08-19.74 52.08-49 52.08-29.54 0-49.28-20.86-49.28-52.08 0-31.64 19.6-52.36 49.42-52.36 29.12.01 48.86 21.14 48.86 52.36zm-76.16-.42c0 21.42 10.36 34.3 27.3 34.44 16.52 0 26.74-13.16 26.74-34.44 0-21-10.36-34-27-34s-27.04 13.28-27.04 34zM1578 263.37c17.5 0 31.78 7.42 31.78 25.06 0 9.66-5.46 16.94-13.58 20.58 10.36 2.94 18.2 10.5 18.2 24.36 0 19.46-15 29.68-33.74 29.68h-49.84v-99.68zm-25.9 40.32h19.9c8 0 16.52-1.54 16.52-11.62s-8.12-11.76-16.52-11.76h-19.88zm0 42h22c9.38 0 18.48-1.82 18.48-13.58 0-12-9.8-13.58-19.6-13.58h-20.86zm185.9 17.36h-23l-7.84-22.26h-37.1l-8.06 22.26h-22.4l37.94-99.82h22.54zm-49.28-75.32l-13.3 37.1h26.46zm163.14 75.32H1830v-43h-40.74v43h-21.84v-99.68h21.84v37.52H1830v-37.52h21.84zm124.74 0h-21.84v-69.16h-.42l-37.52 69.16h-24.64v-99.68H1914v69h.42l37.52-69h24.64zm115.07-81.76h-53.06V303h48.72v17.22h-48.72v24.5h54v18.34h-75.74v-99.69h74.76z" fill="#afb6b9"/><path d="M558.64 5.28c30.82 0 70.53 12.5 70.53 58.31 0 21.38-11.39 40.26-29.16 48.32 20 5 27.21 31.38 28.88 48.87l1.94 20.83c.56 6.94 1.11 15.55 5 21.38h-60c-2.5-5.55-3.05-12.5-3.61-18.6l-.83-11.11c-1.67-22.77-5.28-40-33.6-40h-25.52V203h-60V5.28zm-46.37 86.36h33.32c13.88 0 24.71-5 24.71-20.55 0-13.33-9.44-20-28-20h-30zm341.82 12.49c0 61.92-40 103.58-99.41 103.58-60.53 0-101.08-41.38-101.08-103.85C653.6 41.1 693.86 0 755.23 0c59.15 0 98.86 41.93 98.86 104.13zM715.25 103c0 35.27 14.44 55.54 39.43 55.54 24.71 0 38-19.72 38-57.2 0-33-14.16-52.76-38.32-52.76-24.36.01-39.11 20.56-39.11 54.42zM981.54 5.28c32.77 0 70.25 8.61 70.25 49.43 0 19.44-9.72 30.82-24.71 39.71 22.21 7.77 34.43 23 34.43 48.59 0 46.37-37.21 60-75.81 60H881.85V5.28zm-40.82 75.53h34.15c11.39 0 18.33-5.55 18.33-15 0-10.27-6.94-15.55-21.1-15.55h-31.38zm0 75.25h37.48c15.27 0 23-6.11 23-18.33s-8.05-18.88-23-18.88h-37.48zm342.37-51.93c0 61.92-40 103.58-99.41 103.58-60.53 0-101.08-41.38-101.08-103.85C1082.61 41.1 1122.87 0 1184.24 0c59.15 0 98.85 41.93 98.85 104.13zM1144.25 103c0 35.27 14.44 55.54 39.43 55.54 24.71 0 38-19.72 38-57.2 0-33-14.16-52.76-38.32-52.76-24.36.01-39.11 20.56-39.11 54.42zm260.46 104.71c-60.53 0-99.13-45.54-99.13-104.13 0-58 40.26-103.3 100.24-103.3 48.32 0 86.91 33.6 89.69 78h-58.87c-3.33-17.77-14.72-27.77-31.93-27.77-28.6 0-38 28.6-38 53 0 32.77 14.44 53 38 53 17.77 0 28.88-11.11 31.93-31.66h59.7c-3.6 54.81-43.59 82.86-91.63 82.86zm304.61-4.71H1648l-9.72-28h-63.59l-9.72 28h-61.37l73-197.71h60zm-95-104.41c-4.17-13.61-4.72-16.94-7.5-30-3.33 13.61-4.44 18-8.33 30.27 0 0-4.17 13.61-10.83 33.6h37.21c-3.57-11.39-10.51-33.88-10.51-33.88zm208.01-33.33c-.28-11.94-9.72-18.88-25.27-18.88-12.77 0-20 4.44-20 12.22 0 12.22 33.88 16.94 42.21 19.16 33 8.61 68 21.38 68 62.48s-33.6 67.2-86.36 67.2c-55.26 0-89.14-26.94-89.69-71.09h60.81c1.11 19.16 13.05 25.55 30.82 25.55 15.27 0 24.71-6.39 24.71-16.38a10.26 10.26 0 0 0-3.89-8.05c-8.05-6.66-42.21-15-55.81-19.72C1739.58 108 1719 96.91 1719 63c0-37.21 32.21-61.92 80-61.92 50.54 0 79.69 23.33 80.25 64.14zM2088.9 203h-60.53v-78h-57.2v78h-60.81V5.28h60.81v66.36h57.2V5.28h60.53z" fill="#4b5959"/><g data-name="Слой 2 (копия5)"><path fill="#ff8900" d="M0 242.49h121.23v121.24H0z"/><path fill="#ffa700" d="M121.23 242.49L0 363.72V242.49h121.23z"/></g><g data-name="Слой 2 (копия5)"><path fill="#ffb83a" d="M121.25 242.49h121.23v121.24H121.25z"/><path fill="#ffca49" d="M242.48 242.49L121.25 363.72V242.49h121.23z"/></g><g data-name="Слой 2 (копия5)"><path fill="#b8ba3c" d="M121.25 121.23h121.23v121.23H121.25z"/><path fill="#cacb4b" d="M242.48 121.23L121.25 242.47V121.23h121.23z"/></g><g data-name="Слой 2 (копия5)"><path fill="#71bb3e" d="M242.48 121.23h121.23v121.23H242.48z"/><path fill="#8dcc4e" d="M363.71 121.23L242.48 242.47V121.23h121.23z"/></g><g data-name="Слой 2 копия 2"><path fill="#4c9d33" d="M242.48 0h121.23v121.23H242.48z"/><path fill="#5fb640" d="M363.71 0L242.48 121.23V0h121.23z"/></g></g></svg>